<svg width="0" height="0" class="hidden">
  <symbol fill="none" xmlns="http://www.w3.org/2000/svg" viewBox="0 0 20 20" id="Shape">
    <path fill-rule="evenodd" clip-rule="evenodd" d="M18.9 17.486l-3.58-3.58a8 8 0 10-1.415 1.413l3.58 3.58a1 1 0 101.416-1.413zM14.198 12A6 6 0 113.804 6a6 6 0 0110.393 6z" fill="#000"></path>
    <path d="M15.32 13.906l.354-.353-.354.353zm3.58 3.58l-.353.354.006.006.348-.36zm-3.58-3.58l-.395-.307-.271.348.312.312.354-.354zM14.291 3l.33-.375-.33.375zM3 14.292l-.375.33.375-.33zm10.905 1.027l.354-.353-.312-.312-.348.27.306.396zm3.58 3.58l.36-.347-.006-.006-.354.354zM9.001 15v.5-.5zm5.196-3l.433.25-.433-.25zm0-6l.433-.25-.433.25zm.77 8.26l3.58 3.58.707-.707-3.58-3.58-.707.707zm0 0l.707-.707-.001-.001-.707.707zM13.96 3.374a7.5 7.5 0 01.964 10.224l.79.613a8.5 8.5 0 00-1.093-11.587l-.661.75zm-10.264.322a7.5 7.5 0 0110.264-.322l.661-.75A8.5 8.5 0 002.99 2.99l.707.707zM3.375 13.96a7.5 7.5 0 01.322-10.264L2.99 2.99a8.5 8.5 0 00-.365 11.632l.75-.661zm10.224.964a7.5 7.5 0 01-10.224-.964l-.75.661a8.5 8.5 0 0011.587 1.092l-.613-.79zm4.24 3.621l-3.58-3.58-.707.707 3.58 3.58.707-.707zm.493.143a.5.5 0 01-.487-.137l-.72.695a1.5 1.5 0 001.46.41l-.253-.968zm.357-.357a.5.5 0 01-.357.357l.252.968a1.5 1.5 0 001.072-1.07l-.967-.255zm-.136-.486a.5.5 0 01.136.486l.967.254a1.5 1.5 0 00-.408-1.459l-.695.719zM9 15.5a6.5 6.5 0 005.629-3.25l-.866-.5A5.5 5.5 0 019 14.5v1zM2.5 9A6.5 6.5 0 009 15.5v-1A5.5 5.5 0 013.5 9h-1zM9 2.5A6.5 6.5 0 002.5 9h1A5.5 5.5 0 019 3.5v-1zm5.629 3.25A6.5 6.5 0 009 2.5v1a5.5 5.5 0 014.764 2.75l.866-.5zm0 6.5a6.5 6.5 0 000-6.5l-.866.5a5.5 5.5 0 010 5.5l.866.5z" fill="#000"></path>
  </symbol>
    <symbol  xmlns="http://www.w3.org/2000/svg" viewBox="0 0 27 20" id="video">
    <path  fill-rule="evenodd" clip-rule="evenodd" d="M22.208 2.868L18.41 5.682v-3.18C18.41 1.119 17.31 0 15.955 0h-13.5C1.095 0 0 1.12 0 2.503v14.994C0 18.882 1.099 20 2.454 20h13.501c1.358 0 2.454-1.12 2.454-2.503v-3.179l3.8 2.814a2.19 2.19 0 001.111.368h2.45c.686 0 1.23-.561 1.23-1.253V3.753c0-.692-.551-1.253-1.23-1.253h-2.45a2.16 2.16 0 00-1.112.368zM2.455 17.5v-15h13.5v15h-13.5zm2.454-3.75c0-.69.55-1.25 1.231-1.25h6.13c.679 0 1.23.555 1.23 1.25 0 .69-.55 1.25-1.23 1.25H6.14c-.68 0-1.23-.555-1.23-1.25zM23.511 15l-5.087-3.762V8.762l5.083-3.765 1.038.001v10L23.512 15z" fill="#000"></path>
  </symbol>
    <symbol  xmlns="http://www.w3.org/2000/svg" viewBox="0 0 21 21" id="apps">
    <path  fill-rule="evenodd" clip-rule="evenodd" d="M0 2.5a2.5 2.5 0 105 0 2.5 2.5 0 00-5 0zM2.5 13a2.5 2.5 0 110-5 2.5 2.5 0 010 5zm0 8a2.5 2.5 0 110-5 2.5 2.5 0 010 5zm8 0a2.5 2.5 0 110-5 2.5 2.5 0 010 5zm5.5-2.5a2.5 2.5 0 105 0 2.5 2.5 0 00-5 0zM10.5 13a2.5 2.5 0 110-5 2.5 2.5 0 010 5zM8 2.5a2.5 2.5 0 105 0 2.5 2.5 0 00-5 0zM18.5 13a2.5 2.5 0 110-5 2.5 2.5 0 010 5zM16 2.5a2.5 2.5 0 105 0 2.5 2.5 0 00-5 0z" fill="#000"></path>
  </symbol>
  <symbol  xmlns="http://www.w3.org/2000/svg" viewBox="0 0 22 26" id="notifycation">
    <path  fill-rule="evenodd" clip-rule="evenodd" d="M3.67 22.454C1.643 22.454 0 20.866 0 18.91c0-1.298.727-2.456 1.838-3.074l-.005-4.61c0-4.083 2.836-7.521 6.723-8.548v-.313C8.556 1.058 9.65 0 11 0c1.35 0 2.444 1.058 2.444 2.364v.313c3.888 1.026 6.723 4.465 6.723 8.555v4.613C21.279 16.466 22 17.62 22 18.91c0 1.96-1.641 3.546-3.67 3.546h-3.663C14.665 24.412 13.02 26 11 26c-2.025 0-3.667-1.586-3.667-3.543l-3.664-.003zm6.108 0c0 .654.546 1.182 1.222 1.182.67 0 1.22-.53 1.222-1.181H9.778zm7.944-11.222v5.71c0 .328.27.661.596.743l.32.08c.535.133.918.604.918 1.144 0 .653-.547 1.182-1.225 1.182H3.669c-.675 0-1.225-.531-1.225-1.182 0-.542.381-1.011.916-1.144l.332-.083a.803.803 0 00.586-.74v-5.716c0-3.59 3.009-6.499 6.722-6.499 3.715 0 6.722 2.908 6.722 6.505z" fill="#000"></path>
  </symbol>
</svg>